<svg width="277" height="226" viewBox="0 0 277 226" fill="none" xmlns="http://www.w3.org/2000/svg">
<path d="M167.419 124.092C165.061 112.166 160.759 101.073 159.548 90.0395C159.286 87.6571 157.4 85.6565 155.296 85.8218C153.191 85.987 148.623 89.0102 147.447 98.3177C146.595 105.056 152.097 113.893 149.28 116.733C146.463 119.573 169.499 125.4 167.419 124.092Z" fill="#F5C1C7"/>
<path d="M93.8221 34.8568C88.665 36.4611 84.6419 59.6609 83.0433 66.5425C73.284 108.554 59.9217 157.239 58.7356 162.344C57.253 168.726 59.7234 169.86 62.7187 171.677C65.714 173.494 125.251 187.886 130.408 186.282C134.534 184.998 137.017 175.486 137.017 175.486C146.623 135.121 163.277 61.8665 163.549 58.3425C163.889 53.9375 164.507 51.2786 162.16 49.6124C159.813 47.9462 152.463 46.2387 148.789 45.385C132.186 41.3408 101.926 32.3357 93.8221 34.8568Z" fill="#5992E8"/>
<path opacity="0.4" d="M125.015 77.869C126.945 79.8288 127.706 81.6705 127.604 84.4191C127.411 89.6093 120.383 91.9464 115.199 91.6354C114.846 91.6142 114.506 91.5753 114.185 91.5152C111.622 91.035 108.971 85.8814 109.886 81.8552C111.173 76.1999 120.17 74.0087 124.72 77.6052C124.825 77.6888 124.924 77.7766 125.015 77.869Z" fill="#FAF8F9"/>
<path opacity="0.4" d="M121.889 71.7388C120.858 73.1399 119.01 74.2412 117.877 74.5365C117.465 74.644 117.059 74.4624 116.73 74.1901C116.516 74.0118 116.326 73.7916 116.304 73.5132C116.266 73.0258 116.398 72.1848 117.051 71.0107C117.652 69.9291 119.449 69.0974 121.087 68.5642C122.307 68.1674 123.192 68.9858 122.717 70.1766C122.495 70.7314 122.216 71.2944 121.889 71.7388Z" fill="#FAF8F9"/>
<circle opacity="0.4" cx="149.042" cy="60.3767" r="3.62998" transform="rotate(37.0464 149.042 60.3767)" fill="#FAF8F9"/>
<path d="M189.171 165.614C167.856 146.995 171.288 133.976 167.464 123.954C165.222 118.077 154.983 108.115 152.94 116.991C151.996 121.093 140.588 114.875 138.508 113.567C132.298 109.661 125.103 103.544 119.91 99.6276C115.458 96.2704 110.193 91.1173 109.428 97.1189C108.664 103.121 120.7 116.489 124.06 120.947C127.42 125.406 130.779 129.865 125.438 131.327C120.096 132.79 99.1744 112.039 92.3445 109.772C85.5145 107.505 82.0441 109.696 94.6475 124.45C107.251 139.203 109.011 146.582 107.884 147.718C106.758 148.854 105.631 149.99 92.263 141.238C78.8949 132.486 69.6307 130.058 67.9408 131.762C66.2508 133.466 67.4661 135.525 68.9566 137.276C73.4459 142.552 92.8761 157.62 94.2743 160.133C95.296 161.97 93.3135 162.575 91.9289 162.498C79.0165 161.781 65.717 158.85 63.9365 159.338C62.1561 159.825 60.5566 162.745 63.8257 165.988C65.9823 168.127 75.4804 173.416 80.2818 175.549C91.8762 182.166 139.778 205.632 143.745 206.863C148.705 208.401 139.548 203.877 144.684 200.931C154.579 195.255 159.771 189.697 166.632 181.701C172.59 174.756 210.486 184.234 189.171 165.614Z" fill="#F5C1C7"/>
<path d="M237.324 189.662C218.166 180.57 182.132 159.563 176.782 151.302C176.709 151.174 176.632 151.047 176.552 150.919C176.621 151.044 176.698 151.171 176.782 151.302C188.558 171.628 124.572 193.645 142.561 205.261C160.664 216.949 298.934 283.054 302.096 265.007C303.951 254.416 326.308 260.272 329.01 250.006C332.2 237.883 357.769 235.857 352.632 228.593C347.495 221.328 256.786 198.898 237.324 189.662Z" fill="#F5C1C7"/>
</svg>
